<svg width="85" height="82" viewBox="0 0 85 82" fill="none" xmlns="http://www.w3.org/2000/svg">
<path d="M61.9426 15.9463C65.1135 16.3305 67.6028 18.7507 67.998 21.8369C68.2365 23.6844 68.4409 25.5388 68.6076 27.3931C68.7642 29.1579 70.29 30.4891 72.078 30.4891C72.1802 30.4891 72.2824 30.4857 72.3846 30.4758C74.302 30.3134 75.7221 28.668 75.5554 26.8038C75.3817 24.8633 75.1704 22.9232 74.9186 20.9926C74.1283 14.8305 69.1457 9.9863 62.8075 9.21798C60.7844 8.96979 58.7547 8.76093 56.7215 8.58902C54.8313 8.40017 53.1112 9.80761 52.9445 11.6718C52.7778 13.5359 54.1979 15.1818 56.1154 15.3438C58.0603 15.5093 60.0015 15.7114 61.9426 15.9463ZM12.7159 30.4758C12.8181 30.4857 12.9202 30.4891 13.0224 30.4891C14.8105 30.4891 16.3362 29.1579 16.4928 27.3931C16.6599 25.5388 16.8639 23.6844 17.1024 21.8338C17.4976 18.7511 19.987 16.3308 23.1578 15.9467C25.0989 15.7117 27.0404 15.5096 28.9851 15.3442C30.9025 15.1818 32.3226 13.5363 32.1559 11.6721C31.9923 9.80795 30.2929 8.40729 28.3789 8.58936C26.3457 8.76161 24.316 8.97013 22.2929 9.21832C15.9547 9.9863 10.9721 14.8305 10.1822 20.9892C9.93006 22.9229 9.71871 24.8633 9.54504 26.8038C9.37833 28.668 10.7984 30.3134 12.7159 30.4758ZM72.395 50.7765C70.5219 50.6043 68.7848 51.9951 68.618 53.8593C68.4479 55.7567 68.24 57.6507 67.9983 59.5413C67.6032 62.6241 65.1138 65.0443 61.9395 65.4284C60.0936 65.6536 58.2476 65.8455 56.4017 66.0045C54.4843 66.17 53.0642 67.8158 53.2343 69.68C53.3944 71.4448 54.9167 72.7725 56.7048 72.7725C56.8069 72.7725 56.9091 72.7691 57.0148 72.7593C58.9493 72.5939 60.8838 72.3952 62.8079 72.1568C69.1461 71.3885 74.1286 66.5443 74.9189 60.3822C75.1742 58.4054 75.389 56.4321 75.5658 54.4486C75.7326 52.581 74.3124 50.9386 72.395 50.7765ZM29.0021 66.031C27.0505 65.8655 25.1024 65.6634 23.1578 65.4284C19.987 65.0443 17.4976 62.6241 17.1024 59.5379C16.8775 57.8226 16.6902 56.1042 16.5301 54.3825C16.3565 52.5183 14.6298 51.1475 12.7431 51.3099C10.8256 51.4787 9.40867 53.1276 9.5827 54.9918C9.74975 56.7929 9.95063 58.5909 10.1822 60.3822C10.9725 66.5443 15.9551 71.3885 22.2932 72.1568C24.3265 72.405 26.3562 72.6139 28.3964 72.7858C28.4982 72.7956 28.6004 72.799 28.7026 72.799C30.4941 72.799 32.0164 71.4678 32.173 69.703C32.34 67.8355 30.9196 66.1934 29.0021 66.031ZM63.2947 41.7602C63.5364 41.0648 63.5364 40.31 63.2947 39.6146C60.2672 30.7837 52.1239 25.0787 42.5504 25.0787C32.9768 25.0787 24.8335 30.7837 21.806 39.6146C21.5644 40.31 21.5644 41.0648 21.806 41.7602C24.8335 50.5911 32.9768 56.2961 42.5504 56.2961C52.1239 56.2961 60.2672 50.5911 63.2947 41.7602ZM42.5504 49.5149C37.6222 49.5149 31.5735 47.1706 28.832 40.6874C31.5735 34.2042 37.6222 31.8599 42.5504 31.8599C47.4786 31.8599 53.5273 34.2042 56.2688 40.6874C53.5273 47.1706 47.4786 49.5149 42.5504 49.5149Z" fill="url(#paint0_linear_413_160)"/>
<path d="M42.5502 47.4688C46.4024 47.4688 49.5252 44.4327 49.5252 40.6875C49.5252 36.9423 46.4024 33.9062 42.5502 33.9062C38.698 33.9062 35.5752 36.9423 35.5752 40.6875C35.5752 44.4327 38.698 47.4688 42.5502 47.4688Z" fill="url(#paint1_linear_413_160)"/>
<defs>
<linearGradient id="paint0_linear_413_160" x1="0.700487" y1="14" x2="40.977" y2="73.861" gradientUnits="userSpaceOnUse">
<stop stop-color="#D1193E"/>
<stop offset="1" stop-color="#FDA800"/>
</linearGradient>
<linearGradient id="paint1_linear_413_160" x1="33.7099" y1="35.0524" x2="42.2142" y2="47.6948" gradientUnits="userSpaceOnUse">
<stop stop-color="#D1193E"/>
<stop offset="1" stop-color="#FDA800"/>
</linearGradient>
</defs>
</svg>
