<svg width="85" height="82" viewBox="0 0 85 82" fill="none" xmlns="http://www.w3.org/2000/svg">
<path fillRule="evenodd" clipRule="evenodd" d="M24.9731 14.0032C24.6403 13.6808 24.4029 13.2772 24.2859 12.8348C24.1689 12.3924 24.1767 11.9275 24.3083 11.489C24.44 11.0505 24.6907 10.6546 25.0342 10.3429C25.3776 10.0312 25.801 9.81512 26.26 9.71747L42.8849 6.17427C43.3134 6.08311 43.7586 6.09816 44.1795 6.21804C44.6004 6.33792 44.9835 6.55878 45.2937 6.8603C45.6038 7.16182 45.831 7.53432 45.9543 7.94353C46.0776 8.35275 46.093 8.78554 45.9993 9.2021L42.3514 25.3652C42.2506 25.8104 42.0287 26.221 41.7087 26.5542C41.3888 26.8874 40.9826 27.1308 40.5327 27.2591C40.0828 27.3873 39.6057 27.3956 39.1514 27.2832C38.6971 27.1707 38.2822 26.9416 37.9501 26.6197L24.9697 13.9998L24.9731 14.0032ZM48.4684 76.6111C51.3358 76.6111 54.0856 75.5037 56.1131 73.5325C58.1406 71.5613 59.2797 68.8879 59.2797 66.1002C59.2797 63.3125 58.1406 60.639 56.1131 58.6678C54.0856 56.6966 51.3358 55.5892 48.4684 55.5892C45.6011 55.5892 42.8512 56.6966 40.8237 58.6678C38.7962 60.639 37.6572 63.3125 37.6572 66.1002C37.6572 68.8879 38.7962 71.5613 40.8237 73.5325C42.8512 75.5037 45.6011 76.6111 48.4684 76.6111ZM26.5321 25.1007C25.8781 24.4651 24.9912 24.108 24.0664 24.108C23.1416 24.108 22.2547 24.4651 21.6007 25.1007L13.569 32.906C12.1938 34.2428 11.103 35.8299 10.3587 37.5767C9.6145 39.3234 9.23145 41.1956 9.23145 43.0863C9.23145 44.977 9.6145 46.8492 10.3587 48.5959C11.103 50.3427 12.1938 51.9298 13.569 53.2667L13.583 53.2768C16.3653 55.975 20.1353 57.4894 24.0651 57.4875C27.9949 57.4856 31.7633 55.9675 34.5428 53.2667L55.4853 32.906C58.5543 29.9222 63.524 29.9222 66.593 32.8992C69.655 35.8694 69.6585 40.6908 66.6034 43.6678L66.5965 43.6712L60.4236 49.6726C59.7692 50.3084 59.4014 51.1708 59.401 52.0703C59.4007 52.9697 59.7679 53.8324 60.4218 54.4686C61.0758 55.1049 61.9629 55.4625 62.888 55.4628C63.8131 55.4631 64.7005 55.1061 65.3549 54.4703L71.5278 48.4689L71.5417 48.4554C74.3147 45.7524 75.8699 42.0894 75.8654 38.2718C75.8608 34.4542 74.2968 30.7947 71.5173 28.0981C68.735 25.3999 64.965 23.8855 61.0352 23.8874C57.1054 23.8893 53.337 25.4074 50.5574 28.1082L29.6115 48.4689C26.546 51.4527 21.5763 51.4527 18.5038 48.4689C17.0363 47.041 16.2119 45.1049 16.2119 43.0863C16.2119 41.0677 17.0363 39.1317 18.5038 37.7037L26.5321 29.8951C27.1859 29.2592 27.5532 28.397 27.5532 27.4979C27.5532 26.5988 27.1859 25.7366 26.5321 25.1007Z" fill="url(#paint0_linear_410_149)"/>
<defs>
<linearGradient id="paint0_linear_410_149" x1="8.80034" y1="6.12488" x2="41.0139" y2="77.3056" gradientUnits="userSpaceOnUse">
<stop stop-color="#D1193E"/>
<stop offset="1" stop-color="#FDA800"/>
</linearGradient>
</defs>
</svg>
